<?xml version="1.0" standalone="no"?>
<!DOCTYPE svg PUBLIC "-//W3C//DTD SVG 20010904//EN"
 "http://www.w3.org/TR/2001/REC-SVG-20010904/DTD/svg10.dtd">
<svg version="1.0" xmlns="http://www.w3.org/2000/svg"
 width="500.000000pt" height="500.000000pt" viewBox="0 0 500.000000 500.000000"
 preserveAspectRatio="xMidYMid meet">

<g transform="translate(0.000000,500.000000) scale(0.100000,-0.100000)"
fill="#000000" stroke="none">
<path d="M0 2500 l0 -2500 2500 0 2500 0 0 2500 0 2500 -2500 0 -2500 0 0
-2500z m1985 1344 l516 -645 515 643 c282 354 518 644 523 646 11 4 160 -183
198 -247 74 -123 102 -301 69 -431 -33 -133 -59 -168 -618 -868 -297 -370
-541 -679 -544 -686 -3 -7 18 -34 46 -59 106 -96 249 -101 355 -15 21 18 294
353 608 746 546 684 570 712 588 696 31 -28 59 -97 59 -145 0 -28 -9 -63 -23
-90 -26 -51 -962 -1224 -1051 -1317 -96 -100 -229 -162 -351 -162 -105 0 -243
55 -331 133 l-44 39 -44 -40 c-80 -74 -224 -132 -326 -132 -64 0 -179 32 -236
65 -26 16 -68 46 -92 69 -25 23 -278 332 -563 687 -524 655 -539 675 -539 755
0 32 42 125 65 144 11 9 120 -122 590 -709 385 -482 591 -731 618 -750 80 -53
154 -64 240 -35 44 15 147 95 147 115 0 5 -245 316 -545 691 -382 477 -555
701 -576 745 -76 160 -76 347 0 505 29 61 205 298 221 298 4 0 240 -291 525
-646z m418 -2312 l27 -28 -29 -28 c-26 -25 -34 -27 -82 -22 -55 6 -82 8 -349
27 -85 6 -164 12 -175 14 -11 2 -267 5 -570 6 l-550 3 625 7 c344 3 636 9 650
12 14 3 70 8 125 12 181 13 290 22 296 23 3 1 17 -11 32 -26z m362 13 c135 -8
230 -15 355 -26 58 -5 353 -10 655 -11 303 -1 532 -3 510 -5 -22 -1 -296 -4
-610 -6 -313 -3 -583 -7 -600 -10 -16 -4 -97 -11 -180 -17 -82 -5 -176 -13
-209 -16 -54 -5 -60 -4 -87 22 l-29 28 27 28 c17 18 34 26 47 23 12 -2 66 -7
121 -10z m-231 -17 c13 -19 14 -25 2 -43 -26 -39 -76 -26 -76 19 0 46 48 62
74 24z m-1289 -462 c8 -28 22 -82 31 -119 9 -37 19 -66 21 -63 3 2 14 40 24
83 42 165 36 151 72 150 l32 -2 32 -120 c17 -66 32 -118 33 -115 1 3 14 57 28
120 l27 115 38 1 c30 1 36 -2 33 -15 -3 -9 -24 -83 -46 -166 -22 -82 -43 -158
-46 -167 -4 -13 -16 -18 -38 -18 l-33 0 -28 115 c-16 63 -31 115 -35 115 -3 0
-19 -52 -34 -115 l-28 -115 -33 0 -32 0 -48 168 c-26 92 -50 174 -52 184 -4
13 2 16 31 15 35 -1 37 -3 51 -51z m766 31 c58 -31 89 -84 89 -154 0 -63 -13
-99 -48 -136 -40 -43 -81 -60 -143 -61 -109 -2 -185 82 -177 195 10 142 153
222 279 156z m429 5 c23 -11 39 -29 48 -54 17 -45 10 -81 -25 -116 l-26 -26
37 -73 c20 -40 36 -76 36 -78 0 -3 -17 -5 -39 -5 -38 0 -38 1 -69 70 -27 60
-34 70 -56 70 -25 0 -26 -2 -26 -70 l0 -70 -35 0 -35 0 0 185 0 185 78 0 c53
0 88 -5 112 -18z m420 -17 l0 -35 -65 0 -65 0 0 -35 0 -35 50 0 c50 0 50 0 50
-32 l0 -33 -50 3 -50 4 0 -51 0 -51 63 0 c35 0 66 -2 69 -5 2 -3 3 -18 0 -35
l-4 -30 -99 0 -99 0 0 184 0 184 100 1 100 1 0 -35z m380 -1 c0 -34 0 -34 -45
-34 l-45 0 0 -150 0 -150 -35 0 -35 0 0 150 0 150 -50 0 c-48 0 -50 1 -50 28
0 16 3 32 7 36 4 4 62 6 130 5 l123 -1 0 -34z m383 22 c39 -16 82 -61 96 -99
33 -86 -10 -202 -89 -242 -95 -48 -219 -8 -256 82 -29 68 -7 182 42 224 56 48
142 63 207 35z"/>
<path d="M1443 4127 c-61 -88 -76 -215 -39 -311 14 -35 174 -243 558 -724 445
-555 542 -672 552 -661 76 82 1057 1327 1076 1364 21 42 25 64 25 141 0 81 -3
97 -30 149 -16 32 -35 60 -42 62 -7 3 -242 -284 -524 -637 -281 -352 -515
-640 -519 -638 -5 2 -237 289 -515 638 -279 349 -510 638 -514 642 -3 4 -16
-7 -28 -25z"/>
<path d="M1884 1049 c-17 -5 -39 -17 -48 -28 -24 -27 -36 -85 -25 -125 30
-108 180 -112 209 -6 27 99 -44 183 -136 159z"/>
<path d="M2328 1054 c-5 -4 -8 -29 -8 -56 l0 -48 38 0 c59 0 96 57 58 89 -18
15 -79 25 -88 15z"/>
<path d="M3520 1052 c-55 -8 -98 -82 -86 -147 18 -96 158 -127 201 -44 21 40
19 108 -5 147 -11 17 -21 32 -22 32 -2 0 -17 4 -33 8 -17 4 -41 6 -55 4z"/>
</g>
</svg>
